<svg xmlns="http://www.w3.org/2000/svg" viewBox="0 0 123 26"><path d="M36.8 18.8c-.4.3-.8.5-1.3.6s-1 .2-1.5.2c-1.1 0-1.9-.3-2.5-.9-.6-.6-.8-1.4-.8-2.5v-5.5H29V8.9h1.7V6.6l2.7-.3v2.6h2.5l-.3 1.8h-2.3v5.4c0 .5.1.9.3 1.1.2.2.5.3.9.3.5 0 .9-.1 1.3-.4l1 1.7zm9.6-4h-6.9c.1 1 .4 1.7.8 2.2s1.1.6 1.9.6c.5 0 .9-.1 1.4-.2.5-.2.9-.4 1.4-.7l1.1 1.4c-1.2.9-2.6 1.4-4.1 1.4-1.7 0-3-.5-3.9-1.4s-1.4-2.3-1.4-4c0-1 .2-2 .6-2.8.4-.8.9-1.5 1.7-2 .7-.5 1.6-.7 2.6-.7 1.5 0 2.7.5 3.6 1.4.8.9 1.3 2.2 1.3 3.8 0 .1-.1.5-.1 1zm-2.6-1.7c0-1.8-.7-2.7-2.1-2.7-.7 0-1.2.2-1.5.7-.4.5-.6 1.2-.7 2.2h4.3v-.2zm12.5-3.7c.5.6.8 1.3.8 2.3v7.5h-2.7v-7.1c0-.6-.1-1-.3-1.3-.2-.2-.6-.4-1-.4s-.9.1-1.2.4c-.4.3-.8.7-1.1 1.2v7.2h-2.7V8.8h2.3l.2 1.4c.9-1.1 2-1.6 3.4-1.6.9 0 1.7.3 2.3.8zm11.4 8c.2.2.4.4.6.4l-.6 1.7c-.6-.1-1.1-.2-1.5-.4-.4-.3-.7-.6-.9-1.1-.4.5-.8.9-1.4 1.2s-1.2.4-1.9.4c-1.1 0-2-.3-2.6-.9-.6-.6-1-1.4-1-2.3 0-1.1.4-2 1.3-2.6.9-.6 2.1-.9 3.7-.9h1.5v-.6c0-.7-.2-1.1-.5-1.4-.3-.3-.8-.4-1.6-.4s-1.8.2-2.9.5l-.6-1.7c1.3-.5 2.6-.7 4-.7 2.8 0 4.2 1.2 4.2 3.6v4.4c0 .3.1.6.2.8zm-2.8-1v-2.1h-1.1c-1.7 0-2.6.6-2.6 1.8 0 .5.1.9.4 1.2.3.3.7.4 1.2.4.9 0 1.6-.4 2.1-1.3zM78.5 10c.7 1 1.1 2.3 1.1 4 0 1-.2 1.9-.5 2.9-.3.8-.8 1.4-1.5 1.9s-1.5.7-2.3.7c-.6 0-1.1-.1-1.6-.4-.5-.2-.9-.6-1.3-1l-.2 1.1h-2.4V4.7l2.7-.3V10c.3-.5.8-.8 1.3-1.1.5-.3 1.1-.4 1.7-.4 1.3.1 2.3.6 3 1.5zm-2.3 6.8c.4-.6.6-1.5.6-2.7 0-1.3-.2-2.2-.6-2.8-.3-.5-.9-.8-1.6-.8-.8 0-1.6.5-2.2 1.4v4.6c.2.4.5.7.9.9.3.2.8.3 1.2.3.7 0 1.4-.4 1.7-.9zm5.8 2c-.5-.5-.7-1.1-.7-2V4.7l2.7-.3v12.4c0 .5.2.7.6.7.2 0 .4 0 .6-.1l.6 1.8c-.6.2-1.2.4-1.8.4-.8-.1-1.5-.3-2-.8zm13.6-4h-6.9c.1 1 .4 1.7.8 2.2.5.4 1.1.6 1.9.6.5 0 .9-.1 1.4-.2.5-.2.9-.4 1.4-.7l1.1 1.4c-1.2.9-2.6 1.4-4.1 1.4-1.7 0-3-.5-3.9-1.4s-1.4-2.3-1.4-4c0-1 .2-2 .6-2.8s.9-1.5 1.7-2c.7-.5 1.6-.7 2.6-.7 1.5 0 2.7.5 3.6 1.4.8.9 1.3 2.2 1.3 3.8 0 .1 0 .5-.1 1zm-2.5-1.7c0-1.8-.7-2.7-2.1-2.7-.7 0-1.2.2-1.5.7-.4.5-.6 1.2-.7 2.2h4.3v-.2zm6.4 3.7c.6.6.7 1.5.1 2.1l-.1.1c-.3.3-.8.5-1.2.5-.4 0-.9-.2-1.2-.5-.6-.6-.7-1.6-.1-2.2l.1-.1c.3-.3.7-.5 1.2-.5.4.2.8.3 1.2.6zm4.8-12.7c.3.3.5.7.5 1.1s-.2.8-.5 1.1c-.3.3-.8.5-1.2.4-.4 0-.9-.1-1.2-.4-.3-.3-.5-.7-.5-1.1s.2-.8.5-1.1c.3-.3.8-.5 1.2-.4.4-.1.8.1 1.2.4zm.1 4.8v10.4h-2.7V8.9h2.7zM115 10c.9 1 1.4 2.3 1.4 4 0 1.1-.2 2-.6 2.9-.4.8-1 1.5-1.8 1.9-.8.5-1.7.7-2.8.7-1.6 0-2.9-.5-3.8-1.5s-1.4-2.3-1.4-4c0-1.1.2-2 .6-2.9.4-.8 1-1.5 1.8-1.9.8-.5 1.7-.7 2.8-.7 1.7.1 2.9.6 3.8 1.5zm-6.2 4c0 1.2.2 2.1.6 2.7s1 .9 1.8.9 1.4-.3 1.8-.9c.4-.6.6-1.5.6-2.7s-.2-2.1-.6-2.7c-.4-.6-1-.9-1.8-.9-1.6.1-2.4 1.3-2.4 3.6zm12.4-10.4c.4.3.8.6 1.1 1.1.3.5.4 1 .4 1.5s-.1 1-.4 1.5c-.3.4-.6.8-1.1 1.1-.5.3-1 .4-1.5.4s-1.1-.1-1.5-.4c-.9-.5-1.5-1.5-1.5-2.5 0-.5.1-1 .4-1.5.3-.4.6-.8 1.1-1.1.9-.6 2-.6 3-.1zm-.4 4.6c.3-.2.6-.5.8-.8.2-.4.3-.8.3-1.2 0-.4-.1-.8-.3-1.2-.2-.3-.5-.6-.8-.8-.4-.2-.8-.3-1.2-.3-.4 0-.8.1-1.1.3-.3.2-.6.5-.8.8-.2.4-.3.8-.3 1.2 0 .4.1.8.3 1.2.2.3.5.6.8.8.3.2.7.3 1.1.3.4 0 .8-.1 1.2-.3zm-.1-2.1c-.1.2-.3.3-.5.3l.8 1.3h-.9l-.7-1.1h-.3v1.1h-.7V4.6h.9c1 0 1.4.3 1.4 1 .2.1.1.3 0 .5zm-1.4-.1h.3c.4 0 .6-.1.6-.4s-.2-.4-.6-.4h-.3V6zM26 15.9c-.1-.3-.3-1.2-.6-2.2l-1.7-7.3-.6-2.2c-.1-.4-.5-.8-.9-.9l-2.4-.7-7.1-2-2.2-.6c-.4-.1-.9 0-1.2.3L.4 8.9c-.3.3-.4.7-.4 1.1l.1.2 2.5 9.4.6 2.2c.1.4.5.8.9.9l1.9.5 7.7 2.1 1.8.5.4.1c.4.1.9 0 1.2-.3l1.6-1.6 5.4-5.4 1.6-1.6c.3-.2.4-.6.3-1.1zM1.2 9.7l8.7-8.5c.1-.1.3-.1.4-.1l11.6 3.2c.1.1.3.2.3.3l.6 2.1 2 8.4c.1.4.2.7.2.9 0 .2 0 .3-.1.4l-8.4 8.4c-.1.1-.3.1-.4.1l-.3-.1-1.9-.3L4.5 22c-.1 0-.1-.1-.2-.1-.1-.1-.1-.1-.1-.2-.1-.5-.3-1.1-.4-1.6l-2.1-7.8c-.2-.8-.4-1.7-.5-2l-.1-.2c0-.1 0-.3.1-.4z" fill="#124669"></path></svg>