<svg xmlns="http://www.w3.org/2000/svg" viewBox="0 0 1062.36 233.73"><defs><style>.tenable-io-1{fill:#005e9b;}</style></defs><title>Tenable.io</title><g id="Layer_2" data-name="Layer 2"><g id="Layer_1-2" data-name="Layer 1"><path class="tenable-io-1" d="M330.08,167.53a39.38,39.38,0,0,1-11.7,5.28,50,50,0,0,1-13.19,1.75q-14.6-.17-22.18-7.82t-7.58-22.61V95H259.9V78.86h15.53V58.27l24-2.63V78.86h23L320,95H299.39V143.6q0,6.87,2.52,9.85t8,3a25.58,25.58,0,0,0,11.79-3.35Z"/><path class="tenable-io-1" d="M416.31,132.34H354.17q1.13,13.54,7.49,19.36t16.84,5.8a37.2,37.2,0,0,0,12.35-2,58.86,58.86,0,0,0,12.36-6.25l9.91,12.84a59.15,59.15,0,0,1-36.68,12.49q-22.65,0-34.9-13T329.28,126a60.26,60.26,0,0,1,5.24-25.6,41.16,41.16,0,0,1,15.16-17.77q9.92-6.42,23.58-6.42,20.78,0,32.19,12.4t11.42,34.57C416.87,124.37,416.68,127.41,416.31,132.34ZM393.1,116.68q0-24.45-19.28-24.45-8.79,0-13.75,6.07t-5.9,19.44H393.1Z"/><path class="tenable-io-1" d="M504.8,83.7q7.4,7.47,7.39,20.84v67.39h-24V108.06q0-8.27-3.09-11.61t-9.07-3.34a18.46,18.46,0,0,0-11.14,3.61,41.94,41.94,0,0,0-9.64,10.46v64.75h-24V78.86h20.78L454,91q12.16-14.79,30.14-14.78Q497.4,76.22,504.8,83.7Z"/><path class="tenable-io-1" d="M607.63,155.3a11.31,11.31,0,0,0,5.7,4l-5.05,15q-8.41-.71-13.75-3.87a20,20,0,0,1-8.15-9.67,31.16,31.16,0,0,1-12.63,10.46,40.6,40.6,0,0,1-16.94,3.43q-14.79,0-23.4-7.91t-8.61-20.76q0-15.13,11.7-23.14t33.41-8h12.35v-5.28q0-9-4.4-12.58t-14.12-3.61q-10.86,0-26.21,4.93L531.92,82.9a105.74,105.74,0,0,1,35.93-6.68q38,0,38,32V147.3Q605.85,152.75,607.63,155.3Zm-25.37-8.53V127.94h-9.91q-23.22,0-23.21,16.19,0,6.69,3.55,10.38t10.48,3.69Q575.34,158.2,582.26,146.77Z"/><path class="tenable-io-1" d="M705,89.15q9.74,12.93,9.74,36.15a64.68,64.68,0,0,1-4.78,25.6,40,40,0,0,1-13.57,17.42,35,35,0,0,1-20.77,6.24,33.67,33.67,0,0,1-14.69-3.16,34,34,0,0,1-11.52-9l-1.49,9.5H626.75V41.56l24-2.46V89.41a33.33,33.33,0,0,1,11.89-9.76A34.66,34.66,0,0,1,678,76.22Q695.25,76.22,705,89.15Zm-20.77,60.7q5.43-7.83,5.43-24.55,0-17.58-5.06-24.89a16.3,16.3,0,0,0-14.22-7.3q-11.42,0-19.66,12.67v41.16a23.18,23.18,0,0,0,8,7.92,20.06,20.06,0,0,0,10.39,2.81A17.4,17.4,0,0,0,684.21,149.85Z"/><path class="tenable-io-1" d="M736.47,168.32Q730,162.08,730,150.64V41.56l24-2.46V149.93q0,6.52,5.61,6.52a18.93,18.93,0,0,0,5.62-.88l5,15.83a40.45,40.45,0,0,1-15.91,3.16Q742.93,174.56,736.47,168.32Z"/><path class="tenable-io-1" d="M858.51,132.34H796.38q1.13,13.54,7.48,19.36t16.85,5.8a37.24,37.24,0,0,0,12.35-2,58.81,58.81,0,0,0,12.35-6.25l9.92,12.84a59.17,59.17,0,0,1-36.68,12.49q-22.65,0-34.91-13T771.48,126a60.41,60.41,0,0,1,5.24-25.6,41.23,41.23,0,0,1,15.16-17.77q9.93-6.42,23.59-6.42,20.78,0,32.19,12.4t11.41,34.57C859.07,124.37,858.89,127.41,858.51,132.34Zm-23.2-15.66q0-24.45-19.28-24.45-8.81,0-13.76,6.07t-5.89,19.44h38.93Z"/><path class="tenable-io-1" d="M892.84,150.2a13.54,13.54,0,0,1,0,20.14A15.26,15.26,0,0,1,882,174.56a14.68,14.68,0,0,1-10.57-4.22,13.83,13.83,0,0,1-.1-20.14A14.8,14.8,0,0,1,882,146.06,15.45,15.45,0,0,1,892.84,150.2Z"/><path class="tenable-io-1" d="M935.89,35.67a12.89,12.89,0,0,1,4.21,9.76,12.63,12.63,0,0,1-4.21,9.68A15.56,15.56,0,0,1,924.94,59a15.26,15.26,0,0,1-10.76-3.87A12.6,12.6,0,0,1,910,45.43a12.86,12.86,0,0,1,4.22-9.76,15.06,15.06,0,0,1,10.76-4A15.34,15.34,0,0,1,935.89,35.67Zm1.21,43.19v93.07h-24V78.86Z"/><path class="tenable-io-1" d="M1032.71,89.32q12.26,13.11,12.25,36,0,14.61-5.61,25.78a41,41,0,0,1-16.1,17.33q-10.49,6.15-24.89,6.15-21.9,0-34.25-13.1T951.75,125.3q0-14.6,5.62-25.68a40.84,40.84,0,0,1,16.19-17.24q10.58-6.16,25-6.16Q1020.45,76.22,1032.71,89.32ZM977,125.3q0,16.55,5.34,24.37t16,7.83q10.67,0,16-7.92t5.34-24.28q0-16.35-5.34-24.19t-15.81-7.83Q977,93.28,977,125.3Z"/><path class="tenable-io-1" d="M1059.07,57.65a6.45,6.45,0,0,1,2.41,2.37,6.63,6.63,0,0,1,.88,3.36,6.49,6.49,0,0,1-.87,3.33,6.19,6.19,0,0,1-2.41,2.35,7,7,0,0,1-3.43.85,6.8,6.8,0,0,1-3.39-.85,6.33,6.33,0,0,1-2.41-2.35,6.41,6.41,0,0,1-.89-3.33,6.52,6.52,0,0,1,.89-3.34,6.31,6.31,0,0,1,2.42-2.39,7.08,7.08,0,0,1,6.8,0Zm-.82,10.16A4.68,4.68,0,0,0,1060,66a5.54,5.54,0,0,0,.63-2.64,5.66,5.66,0,0,0-.63-2.67,4.67,4.67,0,0,0-1.77-1.81,5.1,5.1,0,0,0-2.6-.66,5,5,0,0,0-2.55.66,4.62,4.62,0,0,0-1.78,1.81,5.44,5.44,0,0,0-.64,2.67,5.32,5.32,0,0,0,.64,2.64,4.68,4.68,0,0,0,1.77,1.79,5,5,0,0,0,2.56.64A5.19,5.19,0,0,0,1058.25,67.81Zm-.22-4.74a2.46,2.46,0,0,1-1.12.73l1.87,2.87h-1.9l-1.48-2.57h-.58v2.57h-1.64v-6.9h2c2.15,0,3.23.71,3.23,2.13A1.71,1.71,0,0,1,1058,63.07Zm-3.21-.25h.73c.82,0,1.24-.32,1.24-.94s-.43-.89-1.27-.89h-.7Z"/><path class="tenable-io-1" d="M233.41,142.09c-.65-2.4-3-11.22-5.26-19.59L210.42,56.36c-2.24-8.38-4.6-17.19-5.25-19.6a12.42,12.42,0,0,0-8.21-8.2l-19.58-5.24L111.22,5.57,91.6.31a12.37,12.37,0,0,0-11.16,3L3.3,80.46A12.37,12.37,0,0,0,.12,90.56l-.08,0L.57,92.7h0l22.69,84.7c2.24,8.36,4.61,17.19,5.25,19.59a12.43,12.43,0,0,0,8.2,8.2l16.81,4.51,69,18.48,16.35,4.37,3.27.88a12.36,12.36,0,0,0,11.17-3l14.35-14.35,48.42-48.43c6.13-6.12,12.58-12.57,14.37-14.37A12.43,12.43,0,0,0,233.41,142.09ZM8.58,85.7,85.77,8.49a5.56,5.56,0,0,1,3.93-1L195.08,35.76a5.1,5.1,0,0,1,2.9,2.93c.65,2.42,3,11.23,5.25,19.58l20.9,77.93c1,3.68,1.76,6.6,2.13,7.93a5.46,5.46,0,0,1-1.11,3.9L148,225.23a5.38,5.38,0,0,1-3.93,1l-2.74-.73L124.43,221l-85.8-23a4.55,4.55,0,0,1-1.74-1.15,4.65,4.65,0,0,1-1.16-1.77c-.51-1.94-2.13-8-3.9-14.59L12.75,109.29c-2-7.4-4.07-15.18-5-18.53l.12,0-.49-1.36A5.73,5.73,0,0,1,8.58,85.7Z"/></g></g></svg>